<?xml version="1.0" encoding="iso-8859-1"?>
<!-- Generator: Adobe Illustrator 19.0.0, SVG Export Plug-In . SVG Version: 6.00 Build 0)  -->
<svg xmlns="http://www.w3.org/2000/svg" xmlns:xlink="http://www.w3.org/1999/xlink" version="1.1" id="Layer_1" x="0px" y="0px" viewBox="0 0 485 485" style="enable-background:new 0 0 485 485;" xml:space="preserve" width="512px" height="512px">
<g>
	<path d="M124.536,347.92c39.056,4.353,78.587,4.382,117.948,4.353c39.377,0.029,78.909,0,117.952-4.353   c16.494-1.841,30.195-14.21,34.057-30.96c5.491-23.846,5.507-49.9,5.507-74.462c0-24.562,0.049-50.603-5.446-74.45   c-3.857-16.766-17.559-29.118-34.057-30.959c-39.056-4.365-78.591-4.382-117.948-4.365c-39.361-0.016-78.909,0-117.969,4.365   c-16.477,1.841-30.183,14.193-34.024,30.959C85.065,191.896,85,217.937,85,242.499c0,24.562,0,50.615,5.495,74.462   C94.336,333.711,108.038,346.079,124.536,347.92z M201.855,187.23c33.374,17.416,66.54,34.707,100.138,52.237   c-33.5,17.368-66.67,34.577-100.138,51.932V187.23z" fill="#FFFFFF"/>
	<path d="M0,0v485h485V0H0z M455,455H30V30h425V455z" fill="#FFFFFF"/>
</g>
<g>
</g>
<g>
</g>
<g>
</g>
<g>
</g>
<g>
</g>
<g>
</g>
<g>
</g>
<g>
</g>
<g>
</g>
<g>
</g>
<g>
</g>
<g>
</g>
<g>
</g>
<g>
</g>
<g>
</g>
</svg>
